<svg xmlns="http://www.w3.org/2000/svg" viewBox="0 0 100 100">
  <defs>
    <linearGradient id="bg" x1="0" y1="0" x2="1" y2="1">
      <stop offset="0" stop-color="#9c6b3f"></stop><stop offset="1" stop-color="#6b4a2b"></stop>
    </linearGradient>
    <radialGradient id="glow" cx=".25" cy=".05" r=".7">
      <stop offset="0" stop-color="#e0a93b" stop-opacity=".5"></stop><stop offset="1" stop-color="#e0a93b" stop-opacity="0"></stop>
    </radialGradient>
    <clipPath id="flask">
      <path d="M41 16 L41 42 L16 76 Q12 90 26 90 L74 90 Q88 90 84 76 L59 42 L59 16 Z"></path>
    </clipPath>
  </defs>
  <rect width="100" height="100" rx="20" fill="url(#bg)"></rect>
  <rect width="100" height="100" rx="20" fill="url(#glow)"></rect>
  <g clip-path="url(#flask)">
    <rect width="100" height="100" fill="#fff7e3"></rect>
    <rect y="54" width="100" height="46" fill="#6e9355"></rect>
    <circle cx="38" cy="68" r="4" fill="#fff7e3" opacity=".85"></circle>
    <circle cx="58" cy="60" r="3" fill="#fff7e3" opacity=".85"></circle>
    <circle cx="48" cy="78" r="2.5" fill="#fff7e3" opacity=".85"></circle>
  </g>
  <path d="M41 16 L41 42 L16 76 Q12 90 26 90 L74 90 Q88 90 84 76 L59 42 L59 16 Z" fill="none" stroke="#3d2a18" stroke-width="5" stroke-linejoin="round"></path>
  <rect x="38" y="9" width="24" height="12" rx="3" fill="#c8743c" stroke="#3d2a18" stroke-width="4"></rect>
  <path d="M76 26 Q77.5 24.5 79 26 Q80.5 27.5 79 29 L76 33 L73 29 Q71.5 27.5 73 26 Q74.5 24.5 76 26 Z" fill="#e0a93b"></path>
  <path d="M76 19 L78 24 L83 26 L78 28 L76 33 L74 28 L69 26 L74 24 Z" fill="#e0a93b"></path>
</svg>