<svg xmlns="http://www.w3.org/2000/svg" viewBox="0 0 100 100">
  <defs>
    <linearGradient id="bg" x1="0" y1="0" x2="1" y2="1">
      <stop offset="0" stop-color="#9c6b3f"></stop><stop offset="1" stop-color="#6b4a2b"></stop>
    </linearGradient>
    <clipPath id="flask">
      <path d="M44 30 L44 47 L28 70 Q25 79 34 79 L66 79 Q75 79 72 70 L56 47 L56 30 Z"></path>
    </clipPath>
  </defs>
  <rect width="100" height="100" fill="url(#bg)"></rect>
  <g clip-path="url(#flask)">
    <rect width="100" height="100" fill="#fff7e3"></rect>
    <rect y="57" width="100" height="43" fill="#6e9355"></rect>
    <circle cx="42" cy="66" r="2.6" fill="#fff7e3" opacity=".85"></circle>
    <circle cx="55" cy="62" r="2" fill="#fff7e3" opacity=".85"></circle>
  </g>
  <path d="M44 30 L44 47 L28 70 Q25 79 34 79 L66 79 Q75 79 72 70 L56 47 L56 30 Z" fill="none" stroke="#3d2a18" stroke-width="3.4" stroke-linejoin="round"></path>
  <rect x="42" y="25" width="16" height="8" rx="2" fill="#c8743c" stroke="#3d2a18" stroke-width="2.6"></rect>
  <path d="M66 36 L67.5 40 L71.5 41.5 L67.5 43 L66 47 L64.5 43 L60.5 41.5 L64.5 40 Z" fill="#e0a93b"></path>
</svg>